<?xml version="1.0" standalone="no"?>
<!DOCTYPE svg PUBLIC "-//W3C//DTD SVG 20010904//EN"
 "http://www.w3.org/TR/2001/REC-SVG-20010904/DTD/svg10.dtd">
<svg version="1.0" xmlns="http://www.w3.org/2000/svg"
 width="225.000000pt" height="225.000000pt" viewBox="0 0 225.000000 225.000000"
 preserveAspectRatio="xMidYMid meet">
<metadata>
Created by potrace 1.14, written by Peter Selinger 2001-2017
</metadata>
<g transform="translate(0.000000,225.000000) scale(0.100000,-0.100000)"
fill="#000000" stroke="none">
<path d="M1190 1950 c0 -14 -2 -288 -3 -610 -2 -660 1 -635 -78 -680 -33 -18
-50 -21 -85 -16 -78 10 -116 52 -129 138 l-7 47 -202 -2 -201 -2 0 -40 c0 -41
15 -122 34 -186 6 -20 29 -63 50 -97 96 -148 277 -232 487 -226 252 7 436 133
510 349 l28 80 1 635 2 635 -204 0 -203 0 0 -25z"/>
</g>
</svg>
